<?xml version="1.0" standalone="no"?>
<!DOCTYPE svg PUBLIC "-//W3C//DTD SVG 20010904//EN"
 "http://www.w3.org/TR/2001/REC-SVG-20010904/DTD/svg10.dtd">
<svg version="1.0" xmlns="http://www.w3.org/2000/svg"
 width="500.000000pt" height="500.000000pt" viewBox="0 0 500.000000 500.000000"
 preserveAspectRatio="xMidYMid meet">

<g transform="translate(0.000000,500.000000) scale(0.100000,-0.100000)"
fill="#000000" stroke="none">
<path d="M0 2500 l0 -2500 2500 0 2500 0 0 2500 0 2500 -2500 0 -2500 0 0
-2500z m2590 1505 c112 -25 228 -85 304 -156 84 -78 133 -153 169 -259 26 -72
31 -104 34 -210 4 -110 -4 -196 -66 -710 -45 -364 -81 -623 -96 -685 -43 -173
-120 -310 -241 -426 -119 -113 -234 -177 -395 -221 -113 -30 -375 -33 -484 -4
-197 51 -345 165 -423 327 -50 102 -72 205 -72 336 0 120 142 1252 171 1368
74 291 292 527 569 614 166 53 367 62 530 26z m1017 -1456 c71 -34 115 -82
138 -148 19 -55 20 -184 2 -199 -10 -9 -191 -16 -284 -13 -9 1 -13 19 -13 56
0 40 -4 57 -15 61 -23 9 -62 -4 -69 -22 -4 -10 -23 -147 -42 -306 -38 -308
-38 -318 11 -318 30 0 46 21 52 69 3 23 11 45 17 50 7 6 66 7 151 3 l140 -7
-2 -45 c-2 -71 -39 -154 -94 -215 -138 -151 -390 -175 -527 -50 -52 46 -80
105 -88 181 -7 69 57 602 81 673 74 222 332 331 542 230z m352 -1015 c75 -63
12 -194 -93 -194 -52 0 -86 36 -86 90 0 108 103 168 179 104z"/>
<path d="M2234 3391 c-59 -36 -66 -67 -143 -706 -39 -324 -71 -612 -71 -638 0
-52 20 -101 45 -111 9 -3 36 -6 60 -6 54 0 96 32 119 91 26 64 168 1253 156
1304 -18 77 -96 109 -166 66z"/>
</g>
</svg>
